<svg width="403" height="72" viewBox="0 0 403 72" fill="none" xmlns="http://www.w3.org/2000/svg">
<path d="M24.9948 45.5511C20.4041 45.5511 16.2799 44.5849 12.6296 42.6487C8.97562 40.705 6.10646 38.0062 4.02585 34.5484C1.94155 31.0832 0.901245 27.1589 0.901245 22.7756C0.901245 18.3922 1.94155 14.4754 4.02585 11.0176C6.10646 7.55237 8.97562 4.85351 12.6296 2.91729C16.2799 0.973663 20.4041 0 24.9948 0C28.9931 0 32.5953 0.710811 35.805 2.13243C39.0222 3.54665 41.6988 5.58283 43.8313 8.24837L35.9383 15.3861C33.1025 11.9727 29.6632 10.2623 25.6167 10.2623C23.2363 10.2623 21.1186 10.788 19.2639 11.832C17.4054 12.8686 15.9653 14.3421 14.9398 16.245C13.9217 18.1405 13.4145 20.3174 13.4145 22.7756C13.4145 25.2338 13.9217 27.4181 14.9398 29.321C15.9653 31.2165 17.4054 32.6899 19.2639 33.7339C21.1186 34.7705 23.2363 35.2888 25.6167 35.2888C29.6632 35.2888 33.1025 33.5821 35.9383 30.165L43.8313 37.288C41.6988 39.9646 39.0222 42.0119 35.805 43.4335C32.5953 44.844 28.9931 45.5511 24.9948 45.5511Z" fill="white"/>
<path d="M119.503 1.74741V45.5512H107.123V28.4621H90.2261V45.5512H77.8313V1.74741H90.2261V18.1997H107.123V1.74741H119.503Z" fill="white"/>
<path d="M153.503 1.74741H165.897V45.5512H153.503V1.74741Z" fill="white"/>
<path d="M219.045 33.9116H212.292V45.5512H199.897V1.74741H219.919C223.887 1.74741 227.327 2.40639 230.24 3.71695C233.161 5.03121 235.412 6.9082 236.993 9.34421C238.581 11.7839 239.377 14.6531 239.377 17.948C239.377 21.1281 238.637 23.8973 237.156 26.2556C235.675 28.6064 233.557 30.4464 230.803 31.7792L240.266 45.5512H226.997L219.045 33.9116ZM226.864 17.948C226.864 15.9044 226.216 14.3199 224.924 13.1944C223.628 12.069 221.71 11.5063 219.163 11.5063H212.292V24.3305H219.163C221.71 24.3305 223.628 23.7789 224.924 22.6719C226.216 21.5687 226.864 19.9916 226.864 17.948Z" fill="white"/>
<path d="M308.873 37.0362H290.348L286.897 45.5512H274.266L293.605 1.74741H305.808L325.207 45.5512H312.309L308.873 37.0362ZM305.245 27.8993L299.603 13.8904L293.976 27.8993H305.245Z" fill="white"/>
<path d="M390.808 21.8426H401.752V39.9831C399.253 41.7824 396.376 43.1596 393.119 44.1147C389.868 45.0699 386.618 45.5511 383.36 45.5511C378.769 45.5511 374.637 44.5849 370.965 42.6487C367.292 40.705 364.412 38.0062 362.332 34.5484C360.247 31.0832 359.207 27.1589 359.207 22.7756C359.207 18.3922 360.247 14.4754 362.332 11.0176C364.412 7.55237 367.311 4.85351 371.024 2.91729C374.745 0.973663 378.939 0 383.611 0C387.699 0 391.364 0.692301 394.614 2.0732C397.872 3.44669 400.586 5.42734 402.759 8.01143L394.881 15.1344C391.908 11.8876 388.358 10.2623 384.233 10.2623C380.479 10.2623 377.455 11.3989 375.156 13.6683C372.864 15.9414 371.72 18.9772 371.72 22.7756C371.72 25.1968 372.239 27.3588 373.275 29.2617C374.319 31.1572 375.781 32.6381 377.658 33.7043C379.543 34.7631 381.694 35.2888 384.115 35.2888C386.492 35.2888 388.724 34.8112 390.808 33.8524V21.8426Z" fill="white"/>
<path d="M2.00001 63L173.01 63.849" stroke="white" stroke-width="16.0066"/>
<path d="M190.965 58.1156V69.4258H189.748L183.494 61.0068V69.4258H182V58.1156H183.238L189.492 66.5578V58.1156H190.965Z" fill="white"/>
<path d="M204.445 66.6041H198.896L197.743 69.4258H196.206L200.945 58.1156H202.418L207.156 69.4258H205.577L204.445 66.6041ZM203.912 65.3088L201.67 59.7809L199.408 65.3088H203.912Z" fill="white"/>
<path d="M219.36 69.4258L217.119 65.9564C216.83 65.9738 216.612 65.9796 216.457 65.9796H213.874V69.4258H212.38V58.1156H216.457C217.807 58.1156 218.869 58.4741 219.637 59.1796C220.416 59.8735 220.811 60.8391 220.811 62.0707C220.811 62.9381 220.609 63.6782 220.214 64.2911C219.813 64.9098 219.242 65.3551 218.506 65.6326L220.982 69.4258H219.36ZM216.414 64.6149C217.353 64.6149 218.068 64.401 218.57 63.9673C219.066 63.5221 219.317 62.8918 219.317 62.0707C219.317 61.2554 219.066 60.6309 218.57 60.1973C218.068 59.752 217.353 59.5265 216.414 59.5265H213.874V64.6149H216.414Z" fill="white"/>
<path d="M233.559 66.6041H228.01L226.857 69.4258H225.32L230.059 58.1156H231.532L236.27 69.4258H234.691L233.559 66.6041ZM233.026 65.3088L230.784 59.7809L228.522 65.3088H233.026Z" fill="white"/>
<path d="M244.546 69.5646C243.762 69.5646 242.999 69.4316 242.262 69.1714C241.537 68.8939 240.966 68.5469 240.555 68.1306L241.088 66.8816C241.483 67.269 241.995 67.5871 242.625 67.8299C243.25 68.0612 243.89 68.1769 244.546 68.1769C245.4 68.1769 246.04 68.0265 246.467 67.7143C246.894 67.3905 247.108 66.9684 247.108 66.4422C247.108 66.0605 246.99 65.7425 246.766 65.4939C246.537 65.251 246.243 65.066 245.891 64.9388C245.549 64.8173 245.064 64.6728 244.44 64.4993C243.655 64.3027 243.02 64.1003 242.54 63.898C242.07 63.684 241.654 63.366 241.302 62.9497C240.96 62.5218 240.789 61.9435 240.789 61.215C240.789 60.6136 240.939 60.0758 241.238 59.5959C241.537 59.1218 241.974 58.7344 242.561 58.4395C243.159 58.1503 243.906 58 244.802 58C245.411 58 246.019 58.0867 246.617 58.2544C247.214 58.4279 247.727 58.6707 248.154 58.9946L247.663 60.2898C247.22 59.9833 246.75 59.752 246.254 59.5959C245.752 59.4456 245.272 59.3646 244.802 59.3646C243.949 59.3646 243.308 59.5381 242.881 59.8735C242.465 60.1973 242.262 60.631 242.262 61.1687C242.262 61.5561 242.374 61.8741 242.604 62.117C242.844 62.3483 243.143 62.5333 243.5 62.6721C243.853 62.8109 244.338 62.9497 244.952 63.0884C245.731 63.3082 246.361 63.5163 246.83 63.7129C247.31 63.9153 247.727 64.2333 248.068 64.6612C248.41 65.0775 248.581 65.6442 248.581 66.3497C248.581 66.9394 248.431 67.4772 248.132 67.9687C247.833 68.466 247.375 68.8592 246.766 69.1483C246.169 69.4258 245.427 69.5646 244.546 69.5646Z" fill="white"/>
<path d="M254.435 58.1156H255.929V69.4258H254.435V58.1156Z" fill="white"/>
<path d="M272.414 69.4258V61.1918L268.636 68.0612H267.953L264.175 61.2381V69.4258H262.745V58.1156H263.983L268.316 66.0721L272.606 58.1156H273.844V69.4258H272.414Z" fill="white"/>
<path d="M289.625 58.1156V69.4258H288.152V64.3837H282.154V69.4258H280.66V58.1156H282.154V62.9728H288.152V58.1156H289.625Z" fill="white"/>
<path d="M303.105 66.6041H297.556L296.403 69.4258H294.866L299.605 58.1156H301.078L305.816 69.4258H304.237L303.105 66.6041ZM302.572 65.3088L300.331 59.7809L298.068 65.3088H302.572Z" fill="white"/>
<path d="M328.409 69.4258V61.1918L324.63 68.0612H323.947L320.169 61.2381V69.4258H318.739V58.1156H319.977L324.31 66.0721L328.601 58.1156H329.839V69.4258H328.409Z" fill="white"/>
<path d="M340.987 69.5646C339.589 69.5646 338.501 69.1367 337.722 68.2694C336.953 67.4078 336.569 66.1646 336.569 64.5456V58.1156H338.063V64.4762C338.063 66.899 339.034 68.1075 340.987 68.1075C341.937 68.1075 342.674 67.8183 343.186 67.2285C343.698 66.6272 343.954 65.7136 343.954 64.4762V58.1156H345.385V64.5456C345.385 66.182 344.99 67.4309 344.211 68.2925C343.442 69.1425 342.364 69.5646 340.987 69.5646Z" fill="white"/>
<path d="M359.107 69.4258L356.866 65.9564C356.578 65.9738 356.359 65.9796 356.204 65.9796H353.621V69.4258H352.127V58.1156H356.204C357.554 58.1156 358.616 58.4741 359.385 59.1796C360.164 59.8735 360.559 60.8391 360.559 62.0707C360.559 62.9381 360.356 63.6782 359.961 64.2911C359.561 64.9098 358.99 65.3551 358.253 65.6326L360.729 69.4258H359.107ZM356.161 64.6149C357.101 64.6149 357.816 64.401 358.317 63.9673C358.814 63.5221 359.064 62.8918 359.064 62.0707C359.064 61.2554 358.814 60.6309 358.317 60.1973C357.816 59.752 357.101 59.5265 356.161 59.5265H353.621V64.6149H356.161Z" fill="white"/>
<path d="M368.717 59.5265H365.153V58.1156H373.776V59.5265H370.19V69.4258H368.717V59.5265Z" fill="white"/>
<path d="M388.047 58.1156V69.4258H386.574V64.3837H380.576V69.4258H379.082V58.1156H380.576V62.9728H386.574V58.1156H388.047Z" fill="white"/>
<path d="M398.859 65.517V69.4258H397.386V65.4939L393.245 58.1156H394.846L398.176 64.083L401.527 58.1156H403L398.859 65.517Z" fill="white"/>
</svg>
