<svg width="404" height="100" viewBox="0 0 404 100" fill="none" xmlns="http://www.w3.org/2000/svg">
<g clip-path="url(#clip0_1_2)">
<path d="M2.01041 95.599L173.021 96.4479" stroke="white" stroke-width="16.0066"/>
<path d="M34.7971 64.8686C28.3387 64.8686 22.5367 63.5093 17.4012 60.7853C12.2606 58.0509 8.22416 54.2541 5.29708 49.3895C2.36479 44.5145 0.901245 38.9936 0.901245 32.827C0.901245 26.6603 2.36479 21.1499 5.29708 16.2853C8.22416 11.4103 12.2606 7.61343 17.4012 4.88948C22.5367 2.1551 28.3387 0.785309 34.7971 0.785309C40.4221 0.785309 45.4898 1.78531 50.0054 3.78531C54.5315 5.77489 58.2971 8.63948 61.2971 12.3895L50.1929 22.4311C46.2033 17.6291 41.3648 15.2228 35.6721 15.2228C32.3231 15.2228 29.344 15.9624 26.7346 17.4311C24.12 18.8895 22.094 20.9624 20.6512 23.6395C19.219 26.3061 18.5054 29.3686 18.5054 32.827C18.5054 36.2853 19.219 39.3582 20.6512 42.0353C22.094 44.702 24.12 46.7749 26.7346 48.2436C29.344 49.702 32.3231 50.4311 35.6721 50.4311C41.3648 50.4311 46.2033 48.0301 50.1929 43.2228L61.2971 53.2436C58.2971 57.0093 54.5315 59.8895 50.0054 61.8895C45.4898 63.8739 40.4221 64.8686 34.7971 64.8686Z" fill="white"/>
<path d="M135.323 2.01447V63.6395H117.906V39.5978H94.1353V63.6395H76.6978V2.01447H94.1353V25.1603H117.906V2.01447H135.323Z" fill="white"/>
<path d="M155.314 2.01447H172.751V63.6395H155.314V2.01447Z" fill="white"/>
<path d="M219.756 47.2645H210.256V63.6395H192.818V2.01447H220.985C226.568 2.01447 231.407 2.94155 235.506 4.7853C239.615 6.63426 242.782 9.27488 245.006 12.702C247.24 16.1343 248.36 20.1707 248.36 24.8061C248.36 29.2801 247.318 33.1759 245.235 36.4936C243.151 39.8009 240.172 42.3895 236.297 44.2645L249.61 63.6395H230.943L219.756 47.2645ZM230.756 24.8061C230.756 21.9311 229.844 19.702 228.026 18.1186C226.204 16.5353 223.506 15.7436 219.922 15.7436H210.256V33.7853H219.922C223.506 33.7853 226.204 33.0093 228.026 31.452C229.844 29.8999 230.756 27.6811 230.756 24.8061Z" fill="white"/>
<path d="M306.916 51.6603H280.853L275.999 63.6395H258.228L285.437 2.01447H302.603L329.895 63.6395H311.749L306.916 51.6603ZM301.812 38.8061L293.874 19.0978L285.957 38.8061H301.812Z" fill="white"/>
<path d="M383.771 31.5145H399.167V57.0353C395.651 59.5666 391.605 61.5041 387.021 62.8478C382.448 64.1916 377.875 64.8686 373.292 64.8686C366.834 64.8686 361.021 63.5093 355.855 60.7853C350.688 58.0509 346.636 54.2541 343.709 49.3895C340.776 44.5145 339.313 38.9936 339.313 32.827C339.313 26.6603 340.776 21.1499 343.709 16.2853C346.636 11.4103 350.714 7.61343 355.938 4.88948C361.172 2.1551 367.073 0.785309 373.646 0.785309C379.396 0.785309 384.552 1.75927 389.125 3.70198C393.709 5.63427 397.526 8.42073 400.584 12.0561L389.5 22.077C385.318 17.5093 380.323 15.2228 374.521 15.2228C369.24 15.2228 364.985 16.8218 361.75 20.0145C358.526 23.2124 356.917 27.4832 356.917 32.827C356.917 36.2332 357.646 39.2749 359.105 41.952C360.573 44.6186 362.631 46.702 365.271 48.202C367.922 49.6916 370.948 50.4311 374.355 50.4311C377.698 50.4311 380.839 49.7593 383.771 48.4103V31.5145Z" fill="white"/>
<path d="M196.276 89.2521V99.4396H195.089L188.984 91.8563V99.4396H187.526V89.2521H188.734L194.839 96.8563V89.2521H196.276Z" fill="white"/>
<path d="M209.433 96.8979H204.016L202.891 99.4396H201.391L206.016 89.2521H207.454L212.079 99.4396H210.537L209.433 96.8979ZM208.912 95.7313L206.725 90.7521L204.516 95.7313H208.912Z" fill="white"/>
<path d="M223.99 99.4396L221.802 96.3146C221.521 96.3302 221.307 96.3354 221.156 96.3354H218.636V99.4396H217.177V89.2521H221.156C222.474 89.2521 223.511 89.575 224.261 90.2104C225.021 90.8354 225.406 91.7052 225.406 92.8146C225.406 93.5959 225.208 94.2625 224.823 94.8146C224.432 95.3719 223.875 95.7729 223.156 96.0229L225.573 99.4396H223.99ZM221.115 95.1063C222.031 95.1063 222.729 94.9136 223.219 94.5229C223.703 94.1219 223.948 93.5542 223.948 92.8146C223.948 92.0802 223.703 91.5177 223.219 91.1271C222.729 90.7261 222.031 90.5229 221.115 90.5229H218.636V95.1063H221.115Z" fill="white"/>
<path d="M237.849 96.8979H232.432L231.307 99.4396H229.807L234.432 89.2521H235.87L240.495 99.4396H238.953L237.849 96.8979ZM237.328 95.7313L235.14 90.7521L232.932 95.7313H237.328Z" fill="white"/>
<path d="M248.572 99.5646C247.806 99.5646 247.062 99.4448 246.343 99.2104C245.635 98.9604 245.077 98.6479 244.676 98.2729L245.197 97.1479C245.582 97.4969 246.082 97.7834 246.697 98.0021C247.306 98.2104 247.931 98.3146 248.572 98.3146C249.405 98.3146 250.03 98.1792 250.447 97.8979C250.864 97.6063 251.072 97.2261 251.072 96.7521C251.072 96.4084 250.957 96.1219 250.739 95.8979C250.515 95.6792 250.228 95.5125 249.885 95.3979C249.551 95.2886 249.077 95.1584 248.468 95.0021C247.702 94.825 247.082 94.6427 246.614 94.4604C246.155 94.2677 245.749 93.9813 245.405 93.6063C245.072 93.2209 244.905 92.7 244.905 92.0438C244.905 91.5021 245.051 91.0177 245.343 90.5854C245.635 90.1584 246.062 89.8094 246.635 89.5438C247.218 89.2834 247.947 89.1479 248.822 89.1479C249.416 89.1479 250.01 89.2261 250.593 89.3771C251.176 89.5334 251.676 89.7521 252.093 90.0438L251.614 91.2104C251.181 90.9344 250.723 90.7261 250.239 90.5854C249.749 90.45 249.28 90.3771 248.822 90.3771C247.989 90.3771 247.364 90.5334 246.947 90.8354C246.541 91.1271 246.343 91.5177 246.343 92.0021C246.343 92.3511 246.452 92.6375 246.676 92.8563C246.911 93.0646 247.202 93.2313 247.551 93.3563C247.895 93.4813 248.369 93.6063 248.968 93.7313C249.728 93.9292 250.343 94.1167 250.801 94.2938C251.27 94.4761 251.676 94.7625 252.01 95.1479C252.343 95.5229 252.51 96.0334 252.51 96.6688C252.51 97.2 252.364 97.6844 252.072 98.1271C251.78 98.575 251.332 98.9292 250.739 99.1896C250.155 99.4396 249.431 99.5646 248.572 99.5646Z" fill="white"/>
<path d="M258.224 89.2521H259.682V99.4396H258.224V89.2521Z" fill="white"/>
<path d="M275.772 99.4396V92.0229L272.084 98.2104H271.418L267.73 92.0646V99.4396H266.334V89.2521H267.543L271.772 96.4188L275.959 89.2521H277.168V99.4396H275.772Z" fill="white"/>
<path d="M292.57 89.2521V99.4396H291.132V94.8979H285.278V99.4396H283.82V89.2521H285.278V93.6271H291.132V89.2521H292.57Z" fill="white"/>
<path d="M305.727 96.8979H300.31L299.185 99.4396H297.685L302.31 89.2521H303.747L308.372 99.4396H306.831L305.727 96.8979ZM305.206 95.7313L303.018 90.7521L300.81 95.7313H305.206Z" fill="white"/>
<path d="M330.423 99.4396V92.0229L326.735 98.2104H326.069L322.381 92.0646V99.4396H320.985V89.2521H322.194L326.423 96.4188L330.61 89.2521H331.819V99.4396H330.423Z" fill="white"/>
<path d="M342.7 99.5646C341.335 99.5646 340.273 99.1792 339.512 98.3979C338.762 97.6219 338.387 96.5021 338.387 95.0438V89.2521H339.846V94.9813C339.846 97.1636 340.794 98.2521 342.7 98.2521C343.627 98.2521 344.346 97.9917 344.846 97.4604C345.346 96.9188 345.596 96.0959 345.596 94.9813V89.2521H346.992V95.0438C346.992 96.5177 346.606 97.6427 345.846 98.4188C345.096 99.1844 344.044 99.5646 342.7 99.5646Z" fill="white"/>
<path d="M360.385 99.4396L358.198 96.3146C357.916 96.3302 357.703 96.3354 357.552 96.3354H355.031V99.4396H353.573V89.2521H357.552C358.869 89.2521 359.906 89.575 360.656 90.2104C361.416 90.8354 361.802 91.7052 361.802 92.8146C361.802 93.5959 361.604 94.2625 361.218 94.8146C360.828 95.3719 360.27 95.7729 359.552 96.0229L361.968 99.4396H360.385ZM357.51 95.1063C358.427 95.1063 359.125 94.9136 359.614 94.5229C360.099 94.1219 360.343 93.5542 360.343 92.8146C360.343 92.0802 360.099 91.5177 359.614 91.1271C359.125 90.7261 358.427 90.5229 357.51 90.5229H355.031V95.1063H357.51Z" fill="white"/>
<path d="M369.765 90.5229H366.286V89.2521H374.702V90.5229H371.202V99.4396H369.765V90.5229Z" fill="white"/>
<path d="M388.631 89.2521V99.4396H387.193V94.8979H381.339V99.4396H379.881V89.2521H381.339V93.6271H387.193V89.2521H388.631Z" fill="white"/>
<path d="M399.183 95.9188V99.4396H397.746V95.8979L393.704 89.2521H395.267L398.517 94.6271L401.788 89.2521H403.225L399.183 95.9188Z" fill="white"/>
</g>
<defs>
<clipPath id="clip0_1_2">
<rect width="402.324" height="98.7793" fill="white" transform="translate(0.901245 0.785309)"/>
</clipPath>
</defs>
</svg>
